<svg xmlns="http://www.w3.org/2000/svg" viewBox="0 0 250 250">
    <title>git-trim logo</title>
    <rect fill="#206E38" x="130" y="170" width="30" height="30"/>
    <rect fill="#206E38" x="50" y="130" width="30" height="30"/>
    <rect fill="#9BE9A8" x="10" y="130" width="30" height="30"/>
    <rect fill="#206E38" x="90" y="130" width="30" height="30"/>
    <rect fill="#2FA14E" x="130" y="130" width="30" height="30"/>
    <rect fill="#9BE9A8" x="90" y="90" width="30" height="30"/>
    <rect fill="#2FA14E" x="130" y="90" width="30" height="30"/>
    <rect fill="#206E38" x="170" y="90" width="30" height="30"/>
    <rect fill="#2FA14E" x="50" y="50" width="30" height="30"/>
    <rect fill="#2FA14E" x="90" y="50" width="30" height="30"/>
    <rect fill="#41C464" x="130" y="50" width="30" height="30"/>
    <rect fill="#9BE9A8" x="90" y="10" width="30" height="30"/>
    <rect fill="#41C464" x="170" y="130" width="30" height="30"/>
    <rect fill="#41C464" x="210" y="130" width="30" height="30"/>
    <rect fill="#44260A" x="90" y="210" width="30" height="30"/>
    <rect fill="#713F11" x="130" y="210" width="30" height="30"/>
    <rect fill="#66390F" x="170" y="210" width="30" height="30"/>
</svg>
